<svg width="41" height="47" viewBox="0 0 41 47" fill="none" xmlns="http://www.w3.org/2000/svg">
<path fill-rule="evenodd" clip-rule="evenodd" d="M6.7357 3C7.26061 5.64899 5.53683 8.35762 2.92857 8.89998V3H6.7357ZM41 3C41 1.34315 39.6888 0 38.0714 0H2.92857C1.31117 0 0 1.34315 0 3V26C0 37.598 9.17816 47 20.5 47C31.8218 47 41 37.598 41 26V3ZM2.92857 26V11.9381C7.15504 11.3982 10.2253 7.30302 9.70148 3H31.2985C30.7747 7.30302 33.845 11.3982 38.0714 11.9381V26C38.0714 35.9411 30.2044 44 20.5 44C10.7956 44 2.92857 35.9411 2.92857 26ZM38.0714 3V8.89998C35.4632 8.35762 33.7394 5.64899 34.2643 3H38.0714ZM23.7768 15.4613C22.7454 12.1796 18.2546 12.1795 17.2232 15.4613L16.4434 17.9423C16.3775 18.152 16.1885 18.2939 15.9753 18.2939H13.4521C10.1144 18.2939 8.72661 22.7095 11.4269 24.7378L13.4682 26.2711C13.6407 26.4007 13.7129 26.6304 13.647 26.8401L12.8673 29.321C11.8359 32.6028 15.4691 35.3318 18.1694 33.3036L20.2107 31.7702C20.3832 31.6407 20.6168 31.6407 20.7893 31.7702L22.8306 33.3035C25.5309 35.3318 29.1641 32.6028 28.1327 29.321L27.353 26.8401C27.2871 26.6304 27.3593 26.4007 27.5318 26.2711L29.5731 24.7378C32.2734 22.7096 30.8856 18.2939 27.5479 18.2939H25.0247C24.8115 18.2939 24.6225 18.152 24.5566 17.9423L23.7768 15.4613ZM20.0319 16.4048C20.1792 15.936 20.8208 15.936 20.9681 16.4048L21.7478 18.8858C22.2091 20.3535 23.532 21.3471 25.0247 21.3471H27.5479C28.0247 21.3471 28.223 21.9779 27.8372 22.2677L25.7959 23.801C24.5883 24.7081 24.083 26.3159 24.5443 27.7836L25.324 30.2645C25.4713 30.7333 24.9523 31.1232 24.5665 30.8334L22.5252 29.3001C21.3176 28.3931 19.6824 28.3931 18.4748 29.3001L16.4335 30.8334C16.0477 31.1232 15.5287 30.7333 15.676 30.2645L16.4557 27.7836C16.917 26.3159 16.4117 24.7081 15.2041 23.801L13.1628 22.2677C12.777 21.9779 12.9753 21.3471 13.4521 21.3471H15.9753C17.468 21.3471 18.7909 20.3535 19.2522 18.8858L20.0319 16.4048Z" fill="#20222A"/>
</svg>
