<svg width="24" height="25" viewBox="0 0 24 25" fill="none" xmlns="http://www.w3.org/2000/svg">
<path d="M16 4.49998C15.4477 3.9477 14.5523 3.9477 14 4.49998C13.4477 5.05227 13.4477 5.9477 14 6.49998L18 10.5C18.5523 11.0523 19.4477 11.0523 20 10.5C20.5523 9.9477 20.5523 9.05227 20 8.49998L16 4.49998ZM13.4142 7.9142C12.6332 7.13315 11.3668 7.13315 10.5858 7.9142L0.585786 17.9142C0.210713 18.2893 0 18.798 0 19.3284V22.5C0 23.6046 0.895431 24.5 2 24.5H5.17157C5.70201 24.5 6.21071 24.2893 6.58579 23.9142L16.5858 13.9142C17.3668 13.1331 17.3668 11.8668 16.5858 11.0858L13.4142 7.9142Z" fill="#FFC100"/>
<path d="M16.9142 4.41421C16.1332 3.63316 16.1332 2.36683 16.9142 1.58579L17.0858 1.41421C17.8668 0.633165 19.1332 0.633166 19.9142 1.41421L23.0858 4.58579C23.8668 5.36684 23.8668 6.63317 23.0858 7.41421L22.9142 7.58579C22.1332 8.36684 20.8668 8.36683 20.0858 7.58579L16.9142 4.41421Z" fill="#FFC100"/>
</svg>
