<svg width="27" height="23" viewBox="0 0 27 23" fill="none" xmlns="http://www.w3.org/2000/svg">
<path d="M10.2502 2.50312C9.91871 2.50312 9.60076 2.63481 9.36634 2.86924C9.13191 3.10367 9.00021 3.42161 9.00021 3.75314C9.00021 4.08467 9.13191 4.40262 9.36634 4.63704C9.60076 4.87147 9.91871 5.00317 10.2502 5.00317C10.5818 5.00317 10.8997 4.87147 11.1341 4.63704C11.3686 4.40262 11.5003 4.08467 11.5003 3.75314C11.5003 3.42161 11.3686 3.10367 11.1341 2.86924C10.8997 2.63481 10.5818 2.50312 10.2502 2.50312ZM6.71266 2.50312C6.97092 1.77118 7.44985 1.13738 8.08344 0.689065C8.71703 0.24075 9.47408 0 10.2502 0C11.0264 0 11.7834 0.24075 12.417 0.689065C13.0506 1.13738 13.5296 1.77118 13.7878 2.50312H25.75C26.0815 2.50312 26.3994 2.63481 26.6339 2.86924C26.8683 3.10367 27 3.42161 27 3.75314C27 4.08467 26.8683 4.40262 26.6339 4.63704C26.3994 4.87147 26.0815 5.00317 25.75 5.00317H13.7878C13.5296 5.7351 13.0506 6.36891 12.417 6.81722C11.7834 7.26553 11.0264 7.50629 10.2502 7.50629C9.47408 7.50629 8.71703 7.26553 8.08344 6.81722C7.44985 6.36891 6.97092 5.7351 6.71266 5.00317H1.25003C0.918499 5.00317 0.60055 4.87147 0.366125 4.63704C0.131699 4.40262 0 4.08467 0 3.75314C0 3.42161 0.131699 3.10367 0.366125 2.86924C0.60055 2.63481 0.918499 2.50312 1.25003 2.50312H6.71266ZM17.7504 10.0033C17.4189 10.0033 17.1009 10.135 16.8665 10.3694C16.6321 10.6038 16.5004 10.9218 16.5004 11.2533C16.5004 11.5848 16.6321 11.9028 16.8665 12.1372C17.1009 12.3716 17.4189 12.5033 17.7504 12.5033C18.0819 12.5033 18.3999 12.3716 18.6343 12.1372C18.8687 11.9028 19.0004 11.5848 19.0004 11.2533C19.0004 10.9218 18.8687 10.6038 18.6343 10.3694C18.3999 10.135 18.0819 10.0033 17.7504 10.0033ZM14.2128 10.0033C14.4711 9.27134 14.95 8.63754 15.5836 8.18922C16.2172 7.74091 16.9742 7.50016 17.7504 7.50016C18.5266 7.50016 19.2836 7.74091 19.9172 8.18922C20.5508 8.63754 21.0297 9.27134 21.288 10.0033H25.75C26.0815 10.0033 26.3994 10.135 26.6339 10.3694C26.8683 10.6038 27 10.9218 27 11.2533C27 11.5848 26.8683 11.9028 26.6339 12.1372C26.3994 12.3716 26.0815 12.5033 25.75 12.5033H21.288C21.0297 13.2353 20.5508 13.8691 19.9172 14.3174C19.2836 14.7657 18.5266 15.0064 17.7504 15.0064C16.9742 15.0064 16.2172 14.7657 15.5836 14.3174C14.95 13.8691 14.4711 13.2353 14.2128 12.5033H1.25003C0.918499 12.5033 0.60055 12.3716 0.366125 12.1372C0.131699 11.9028 0 11.5848 0 11.2533C0 10.9218 0.131699 10.6038 0.366125 10.3694C0.60055 10.135 0.918499 10.0033 1.25003 10.0033H14.2128ZM10.2502 17.5034C9.91871 17.5034 9.60076 17.6351 9.36634 17.8696C9.13191 18.104 9.00021 18.4219 9.00021 18.7535C9.00021 19.085 9.13191 19.4029 9.36634 19.6374C9.60076 19.8718 9.91871 20.0035 10.2502 20.0035C10.5818 20.0035 10.8997 19.8718 11.1341 19.6374C11.3686 19.4029 11.5003 19.085 11.5003 18.7535C11.5003 18.4219 11.3686 18.104 11.1341 17.8696C10.8997 17.6351 10.5818 17.5034 10.2502 17.5034ZM6.71266 17.5034C6.97092 16.7715 7.44985 16.1377 8.08344 15.6894C8.71703 15.2411 9.47408 15.0003 10.2502 15.0003C11.0264 15.0003 11.7834 15.2411 12.417 15.6894C13.0506 16.1377 13.5296 16.7715 13.7878 17.5034H25.75C26.0815 17.5034 26.3994 17.6351 26.6339 17.8696C26.8683 18.104 27 18.4219 27 18.7535C27 19.085 26.8683 19.4029 26.6339 19.6374C26.3994 19.8718 26.0815 20.0035 25.75 20.0035H13.7878C13.5296 20.7354 13.0506 21.3692 12.417 21.8175C11.7834 22.2659 11.0264 22.5066 10.2502 22.5066C9.47408 22.5066 8.71703 22.2659 8.08344 21.8175C7.44985 21.3692 6.97092 20.7354 6.71266 20.0035H1.25003C0.918499 20.0035 0.60055 19.8718 0.366125 19.6374C0.131699 19.4029 0 19.085 0 18.7535C0 18.4219 0.131699 18.104 0.366125 17.8696C0.60055 17.6351 0.918499 17.5034 1.25003 17.5034H6.71266Z" fill="black"/>
</svg>
