<svg width="31" height="25" viewBox="0 0 31 25" fill="none" xmlns="http://www.w3.org/2000/svg">
<path fill-rule="evenodd" clip-rule="evenodd" d="M9.39777 2.0174C9.02411 1.99114 8.64697 1.99425 8.26994 2.02914C7.79414 2.07317 7.33417 2.16321 6.89421 2.29431C3.81452 3.21207 1.71554 6.14231 2.0314 9.39237C2.3646 12.8209 6.71679 18.7971 13.9715 22.8199C13.9715 22.8199 13.9715 22.8199 13.9715 22.8199V22.8199C13.9715 22.8199 13.9715 22.82 13.9715 22.82C14.9197 23.3457 16.0803 23.3457 17.0285 22.8199C17.0471 22.8096 17.0658 22.7992 17.0844 22.7889C24.3056 18.7664 28.6363 12.8121 28.9686 9.39237C28.9912 9.16023 29.0014 8.92971 28.9998 8.70144C28.9765 5.27744 26.2986 2.35937 22.7301 2.02914C22.3096 1.99023 21.889 1.99085 21.4733 2.02763C19.0577 2.24132 16.8056 3.67583 15.6948 5.67086C15.6123 5.81914 15.3877 5.81914 15.3052 5.67086C14.1946 3.67614 11.943 2.24177 9.52784 2.02773C9.48454 2.02389 9.44118 2.02044 9.39777 2.0174Z" fill="#FE8A01" stroke="#FE8A01" stroke-width="2.5"/>
<path d="M14.4727 4.49829L18.5 10.5L12.9985 15.9999L17.4924 21.9997" stroke="#20222A" stroke-width="2.5" stroke-linecap="round" stroke-linejoin="round"/>
</svg>
