<svg width="31" height="25" viewBox="0 0 31 25" fill="none" xmlns="http://www.w3.org/2000/svg">
<path fill-rule="evenodd" clip-rule="evenodd" d="M9.39777 2.0174C9.02411 1.99114 8.64697 1.99425 8.26994 2.02914C7.79414 2.07317 7.33417 2.16321 6.89421 2.29431C3.81452 3.21207 1.71554 6.14231 2.0314 9.39237C2.3646 12.8209 6.71679 18.7971 13.9715 22.8199C13.9715 22.8199 13.9715 22.8199 13.9715 22.8199V22.8199C13.9715 22.8199 13.9715 22.82 13.9715 22.82C14.9197 23.3457 16.0803 23.3457 17.0285 22.82C17.0471 22.8096 17.0658 22.7992 17.0844 22.7889C24.3056 18.7664 28.6363 12.8121 28.9686 9.39237C28.9912 9.16023 29.0014 8.92971 28.9998 8.70144C28.9765 5.27744 26.2986 2.35937 22.7301 2.02914C22.3096 1.99023 21.889 1.99085 21.4733 2.02763C19.0577 2.24132 16.8056 3.67583 15.6948 5.67086C15.6123 5.81914 15.3877 5.81914 15.3052 5.67086C14.1946 3.67614 11.943 2.24177 9.52784 2.02773C9.48454 2.02389 9.44118 2.02044 9.39777 2.0174Z" fill="#FE8A01"/>
<path fill-rule="evenodd" clip-rule="evenodd" d="M9.31036 3.26432C9.00223 3.24267 8.69294 3.24535 8.38532 3.27382C7.99178 3.31024 7.61279 3.38456 7.25139 3.49225C4.71417 4.24835 3.02076 6.64792 3.27573 9.27146C3.4065 10.6171 4.39192 12.7315 6.36337 15.0795C8.30049 17.3865 11.0825 19.7883 14.5766 21.7261C14.5771 21.7263 14.5775 21.7265 14.5779 21.7268C15.149 22.0435 15.8514 22.0435 16.4225 21.7268L16.9975 22.7637L16.4225 21.7268L16.4763 21.6969C19.9549 19.7591 22.724 17.3625 24.6519 15.0617C26.6138 12.7204 27.5942 10.6134 27.7247 9.27146C27.743 9.08239 27.7513 8.89508 27.7501 8.70997C27.7312 5.94649 25.562 3.54653 22.6151 3.27382C22.272 3.24208 21.9269 3.2424 21.5836 3.27276C19.5585 3.45191 17.6858 4.66488 16.7872 6.27891C16.2281 7.28313 14.7723 7.28313 14.2132 6.27891C13.3148 4.66515 11.4425 3.45229 9.41769 3.27285C9.38193 3.26968 9.34616 3.26684 9.31036 3.26432ZM14.5525 21.713C14.5548 21.7142 14.5571 21.7155 14.5594 21.7167C14.5571 21.7155 14.5548 21.7143 14.5525 21.7131C14.5241 21.6982 14.502 21.6879 14.4924 21.6835L14.4922 21.6835C14.486 21.6806 14.4806 21.6782 14.4815 21.6786L14.4815 21.6786L14.4814 21.6786L14.4814 21.6786L14.4813 21.6786C14.4811 21.6785 14.4812 21.6785 14.4817 21.6787C14.4822 21.6789 14.483 21.6793 14.4842 21.6798C14.4843 21.6799 14.4844 21.6799 14.4845 21.68C14.4865 21.6809 14.4892 21.6821 14.492 21.6834C14.5008 21.6874 14.5204 21.6964 14.5457 21.7095C14.5479 21.7107 14.5502 21.7118 14.5525 21.713ZM14.4922 21.6835C14.5009 21.6874 14.5204 21.6964 14.5457 21.7095ZM14.5778 21.7267C14.5778 21.7267 14.5779 21.7267 14.5779 21.7268ZM8.15495 0.784457C8.60139 0.743144 9.04638 0.739613 9.48557 0.770469C9.53659 0.774053 9.58753 0.778101 9.63838 0.782608C11.9059 0.98357 14.0593 2.10377 15.5002 3.78027C16.9413 2.10345 19.0953 0.983129 21.3633 0.782489C21.8516 0.739301 22.3476 0.738387 22.8454 0.784457C27.0355 1.17221 30.2221 4.6084 30.25 8.69292C30.2519 8.96434 30.2397 9.23806 30.2129 9.51329C30.011 11.5911 28.66 14.171 26.5681 16.6674C24.4423 19.2043 21.4355 21.7961 17.6929 23.8809L17.087 22.7932L17.6929 23.8809L17.6348 23.9131C16.3102 24.6476 14.6924 24.648 13.3675 23.9142C13.3668 23.9138 13.3662 23.9135 13.3655 23.9131C9.60556 21.8282 6.58451 19.2307 4.44878 16.6871C2.34716 14.1841 0.989882 11.5962 0.787454 9.51329C0.410709 5.63671 2.91525 2.17579 6.53742 1.09638C7.05593 0.941856 7.59689 0.8361 8.15495 0.784457Z" fill="#FE8A01"/>
</svg>
