<svg width="57" height="47" viewBox="0 0 57 47" fill="none" xmlns="http://www.w3.org/2000/svg">
<path d="M8.45196 26.8188C5.31758 26.6025 2.58411 29.126 2.87568 32.2985C3.34949 37.021 12.461 44.195 14.4291 44.195C16.2515 44.195 30.3197 34.3894 24.6341 28.4411C23.6865 27.4317 22.338 26.7828 20.8072 26.7828C15.887 26.7828 16.1786 31.6135 13.6273 30.2076C12.7162 29.6668 12.1695 27.1433 8.45196 26.8188ZM29.7366 3.24206C28.9712 6.01792 30.2468 5.47717 27.1853 11.4975C24.9621 15.8236 22.9211 19.6809 18.4747 20.3659L17.4177 20.5461V24.6558C17.4177 24.6558 18.4747 23.9348 20.8072 23.9348C27.0012 23.9348 34.4381 31.6856 22.6295 42.2483C26.2013 44.231 30.3926 43.8705 36.7342 43.8705C41.29 43.8705 46.7934 44.1229 47.7774 43.1495C49.1624 41.8157 47.8139 40.59 50.8389 37.8502C54.3378 34.6778 49.0895 34.3533 52.9528 30.5681C55.9778 27.6119 50.6203 26.8549 53.3902 23.1778C54.6658 21.4834 53.1715 19.2844 51.2763 19.032L35.167 18.6715C29.5179 18.0947 34.3652 15.7875 34.0737 8.39723C33.855 2.48501 29.7366 2.88156 29.7366 3.24206ZM14.3562 26.6025V17.9505C20.1148 17.0493 20.5886 17.6261 24.4519 10.1276C27.404 4.32356 25.8004 5.90977 26.7844 2.44896C28.2423 -2.85041 41.2171 -0.0385014 36.0053 15.7154L51.6772 16.0038C56.0507 16.5806 58.4926 21.4834 55.8685 24.9803C55.5769 25.3768 55.5405 24.9803 55.8685 25.485C58.7842 29.5586 55.2125 32.4066 54.6293 33.3079C56.9983 37.6339 51.6043 40.7702 51.6043 41.8517C51.6043 43.0053 50.8389 44.4834 49.9642 45.3486C47.8503 47.3674 42.8937 46.9348 36.7342 46.9348C29.6272 46.8988 24.4519 47.3674 20.1148 44.2671C17.8915 45.8533 15.0852 48.0163 12.2788 46.4662C5.82783 42.9332 -3.50241 34.4615 1.34494 27.4317C4.40643 23.0336 10.7116 22.8533 14.3562 26.6025Z" fill="#20222A"/>
</svg>
