<svg width="53" height="42" viewBox="0 0 53 42" fill="none" xmlns="http://www.w3.org/2000/svg">
<path fill-rule="evenodd" clip-rule="evenodd" d="M5 3H39C40.1046 3 41 3.89543 41 5V25C41 26.1046 40.1046 27 39 27H5C3.89543 27 3 26.1046 3 25V5C3 3.89543 3.89543 3 5 3ZM0 5C0 2.23858 2.23858 0 5 0H39C41.7614 0 44 2.23858 44 5V14H48.0081C50.7651 14 53 16.2386 53 19V37C53 39.7614 50.7651 42 48.0081 42H16.9919C14.2349 42 12 39.7614 12 37V30H5C2.23858 30 0 27.7614 0 25V5ZM14.9951 30V33H50.0049V19C50.0049 17.8954 49.1109 17 48.0081 17H44V25C44 27.7614 41.7614 30 39 30H14.9951ZM50.0049 36H14.9951V37C14.9951 38.1046 15.8891 39 16.9919 39H48.0081C49.1109 39 50.0049 38.1046 50.0049 37V36ZM26 15C26 17.2091 24.2091 19 22 19C19.7909 19 18 17.2091 18 15C18 12.7909 19.7909 11 22 11C24.2091 11 26 12.7909 26 15ZM29 15C29 18.866 25.866 22 22 22C18.134 22 15 18.866 15 15C15 11.134 18.134 8 22 8C25.866 8 29 11.134 29 15Z" fill="#20222A"/>
</svg>
