<svg width="22" height="22" viewBox="0 0 22 22" fill="none" xmlns="http://www.w3.org/2000/svg">
<path fill-rule="evenodd" clip-rule="evenodd" d="M8.74694 14.4174C5.62113 14.4174 3.08716 11.8834 3.08716 8.75762C3.08716 5.63181 5.62113 3.09784 8.74694 3.09784C11.8728 3.09784 14.4067 5.63181 14.4067 8.75762C14.4067 11.8834 11.8728 14.4174 8.74694 14.4174ZM0 8.75762C0 3.92682 3.91614 0.0106812 8.74694 0.0106812C13.5777 0.0106812 17.4939 3.92682 17.4939 8.75762C17.4939 10.8474 16.761 12.7661 15.5382 14.2706L20.5678 19.3001C21.2122 19.9446 21.2459 20.9556 20.6431 21.5584C20.0403 22.1613 19.0293 22.1275 18.3848 21.4831L13.1934 16.2917C11.8905 17.0623 10.3704 17.5046 8.74694 17.5046C3.91614 17.5046 0 13.5884 0 8.75762Z" fill="#FFC100"/>
</svg>
