<svg width="19" height="18" viewBox="0 0 19 18" fill="none" xmlns="http://www.w3.org/2000/svg">
<path d="M8.62568 0.860966C9.12285 -0.0506612 10.4318 -0.05066 10.929 0.860967L12.8507 4.38453C13.0393 4.73049 13.3735 4.9733 13.7609 5.04584L17.7058 5.78458C18.7264 5.97572 19.1309 7.22064 18.4176 7.97519L15.6603 10.8916C15.3896 11.178 15.2619 11.5708 15.3126 11.9616L15.8291 15.9418C15.9627 16.9715 14.9037 17.7409 13.9656 17.2956L10.3399 15.5745C9.98389 15.4055 9.57079 15.4055 9.2148 15.5745L5.58906 17.2956C4.651 17.7409 3.59201 16.9715 3.72563 15.9418L4.24208 11.9616C4.29279 11.5708 4.16514 11.178 3.89441 10.8916L1.13713 7.97519C0.423752 7.22064 0.828253 5.97572 1.8489 5.78458L5.79382 5.04584C6.18115 4.9733 6.51536 4.73049 6.70403 4.38453L8.62568 0.860966Z" fill="#FFC100"/>
</svg>
