<svg width="46" height="46" viewBox="0 0 46 46" fill="none" xmlns="http://www.w3.org/2000/svg">
<path fill-rule="evenodd" clip-rule="evenodd" d="M46 23C46 35.7025 35.7025 46 23 46C10.2975 46 0 35.7025 0 23C0 10.2975 10.2975 0 23 0C35.7025 0 46 10.2975 46 23ZM25.0608 16.419C21.0724 18.0809 9.57242 22.8005 9.57242 22.8005C6.84701 23.8641 8.44229 24.8612 8.44229 24.8612C8.44229 24.8612 10.7689 25.6589 12.7632 26.2571C14.7574 26.8554 15.821 26.1907 15.821 26.1907C15.821 26.1907 20.4741 23.1329 25.1937 19.8756C28.5174 17.6156 27.7198 19.4768 26.9221 20.2746C25.1937 22.0029 22.3354 24.7283 19.9423 26.9219C18.8788 27.8526 19.4105 28.6502 19.8759 29.0491C21.2292 30.1942 24.4166 32.2768 25.8637 33.2223C26.2647 33.4843 26.532 33.659 26.5897 33.7022C26.9221 33.9682 28.7834 35.1647 29.9134 34.8988C31.0435 34.6329 31.1764 33.104 31.1764 33.104C31.1764 33.104 32.0406 27.6531 32.8383 22.6676C32.986 21.6887 33.1338 20.7303 33.2716 19.8367C33.6296 17.514 33.9203 15.6287 33.9683 14.9566C34.1678 12.6965 31.7747 13.6271 31.7747 13.6271C31.7747 13.6271 26.5897 15.7543 25.0608 16.419Z" fill="#44BA40"/>
</svg>
