<svg width="51" height="47" viewBox="0 0 51 47" fill="none" xmlns="http://www.w3.org/2000/svg">
<path fill-rule="evenodd" clip-rule="evenodd" d="M27.4993 44C38.8214 44 47.9999 34.8218 47.9999 23.5C47.9999 12.1782 38.8214 3 27.4993 3C16.3153 3 7.22308 11.9554 7.00269 23.0862C5.92125 23.582 4.92622 24.2339 4.04642 25.0129C3.1989 11.6749 14.1006 0 27.4993 0C40.4784 0 51 10.5213 51 23.5C51 36.4787 40.4784 47 27.4993 47C23.8817 47 20.4551 46.1827 17.394 44.7226C15.7724 45.5398 13.9402 46 12.0004 46C5.37275 46 0 40.6274 0 34C0 27.3726 5.37275 22 12.0004 22C18.628 22 24.0008 27.3726 24.0008 34C24.0008 37.4196 22.5703 40.5052 20.2752 42.691C22.5219 43.5371 24.9565 44 27.4993 44ZM21.0007 34C21.0007 38.9706 16.9711 43 12.0004 43C7.02966 43 3.0001 38.9706 3.0001 34C3.0001 29.0294 7.02966 25 12.0004 25C16.9711 25 21.0007 29.0294 21.0007 34ZM18.024 30.2266C18.5809 30.7797 18.6357 31.6621 18.1514 32.2798L12.8695 39.0177C11.6757 40.5406 9.37364 40.5517 8.16519 39.0404L5.86048 36.158C5.36985 35.5444 5.41604 34.6608 5.96796 34.1017C6.61976 33.4414 7.70178 33.498 8.28118 34.2226L10.5099 37.0099L15.715 30.37C16.2866 29.6407 17.3666 29.5737 18.024 30.2266ZM34.1146 32.5325C34.7829 33.2008 35.8665 33.2008 36.5348 32.5325C37.2027 31.8646 37.2032 30.782 36.536 30.1135L29.1656 22.7286V9.72457C29.1656 8.77709 28.3975 8.009 27.45 8.009C26.5025 8.009 25.7343 8.77709 25.7343 9.72457V22.0814C25.7343 23.4075 26.2611 24.6793 27.1989 25.617L34.1146 32.5325Z" fill="#20222A"/>
</svg>
