<svg width="24" height="26" viewBox="0 0 24 26" fill="none" xmlns="http://www.w3.org/2000/svg">
<path d="M21.2888 2.43468C20.6687 1.86339 18.159 0.0421041 12.5633 0.01769C12.5633 0.01769 5.96657 -0.377818 2.75368 2.5714C0.966572 4.35851 0.336689 6.98058 0.268329 10.2277C0.19997 13.4747 0.116962 19.5587 5.98122 21.2091H5.9861L5.98122 23.7286C5.98122 23.7286 5.94216 24.7491 6.61599 24.9542C7.42653 25.2081 7.90505 24.4318 8.68142 23.5968C9.10622 23.1378 9.69216 22.464 10.1365 21.9513C14.1502 22.2882 17.2312 21.5167 17.5828 21.4044C18.3933 21.1407 22.9783 20.5548 23.7205 14.4708C24.492 8.19152 23.3494 4.22667 21.2888 2.43468ZM21.9675 14.0118C21.3377 19.09 17.6218 19.4122 16.9383 19.6319C16.6453 19.7247 13.9353 20.3985 10.532 20.1788C10.532 20.1788 7.99294 23.2403 7.20192 24.0362C6.94313 24.295 6.65993 24.2706 6.66481 23.7579C6.66481 23.421 6.68434 19.5734 6.68434 19.5734C6.67946 19.5734 6.67946 19.5734 6.68434 19.5734C1.71364 18.1964 2.00661 13.0157 2.06032 10.3058C2.11403 7.59582 2.62673 5.37414 4.1404 3.87999C6.86013 1.41417 12.4607 1.78039 12.4607 1.78039C17.1922 1.79992 19.4578 3.2257 19.9851 3.70421C21.7283 5.19835 22.617 8.77257 21.9675 14.0118ZM15.1804 10.0665C15.2 10.4864 14.5701 10.5157 14.5506 10.0958C14.4968 9.0216 13.9939 8.49914 12.9588 8.44054C12.5388 8.41613 12.5779 7.78624 12.9929 7.81066C14.3552 7.8839 15.1121 8.66515 15.1804 10.0665ZM16.1717 10.6183C16.2205 8.54796 14.9265 6.92687 12.4705 6.74621C12.0554 6.71691 12.0994 6.08703 12.5144 6.11632C15.3465 6.3214 16.8552 8.26964 16.8015 10.6329C16.7966 11.0528 16.1619 11.0333 16.1717 10.6183ZM18.4666 11.2726C18.4715 11.6925 17.8367 11.6974 17.8367 11.2775C17.8074 7.29796 15.156 5.12999 11.9383 5.10558C11.5232 5.1007 11.5232 4.4757 11.9383 4.4757C15.5369 4.50011 18.4324 6.98546 18.4666 11.2726ZM17.9148 16.0626V16.0724C17.3875 17.0001 16.4011 18.0255 15.3855 17.6984L15.3758 17.6837C14.3455 17.3956 11.9187 16.1456 10.3855 14.9249C9.5945 14.2999 8.87185 13.5626 8.3152 12.8546C7.81227 12.2247 7.30446 11.4777 6.8113 10.5792C5.77126 8.69933 5.54177 7.85949 5.54177 7.85949C5.21462 6.84386 6.23513 5.85753 7.16774 5.33019H7.17751C7.62673 5.09581 8.05641 5.17394 8.3445 5.52062C8.3445 5.52062 8.94997 6.24328 9.20876 6.59972C9.4529 6.93175 9.78005 7.46398 9.95095 7.76183C10.2488 8.29406 10.0633 8.83605 9.77028 9.06066L9.18435 9.52941C8.88649 9.76867 8.92556 10.213 8.92556 10.213C8.92556 10.213 9.7947 13.4991 13.0418 14.3292C13.0418 14.3292 13.4861 14.3683 13.7254 14.0704L14.1941 13.4845C14.4187 13.1915 14.9607 13.006 15.4929 13.3038C16.2107 13.7091 17.1238 14.339 17.7293 14.9103C18.0711 15.1886 18.1492 15.6134 17.9148 16.0626Z" fill="black"/>
</svg>
