<svg width="47" height="46" viewBox="0 0 47 46" fill="none" xmlns="http://www.w3.org/2000/svg">
<path fill-rule="evenodd" clip-rule="evenodd" d="M47 23C47 35.7026 36.4787 46 23.5 46C10.5213 46 0 35.7026 0 23C0 10.2975 10.5213 0 23.5 0C36.4787 0 47 10.2975 47 23ZM24.4568 33.0876H22.6123C22.6123 33.0876 18.5426 33.3274 14.9588 29.6756C11.0504 25.6925 7.59857 17.7885 7.59857 17.7885C7.59857 17.7885 7.39959 17.2703 7.61575 17.0198C7.85871 16.7381 8.52059 16.7201 8.52059 16.7201L12.9296 16.6918C12.9296 16.6918 13.3452 16.7599 13.6426 16.9735C13.8877 17.1498 14.0251 17.4794 14.0251 17.4794C14.0251 17.4794 14.7376 19.2432 15.6814 20.8389C17.5234 23.9541 18.3813 24.6355 19.0067 24.3017C19.9179 23.8151 19.6447 19.898 19.6447 19.898C19.6447 19.898 19.6615 18.4761 19.186 17.8431C18.8178 17.3523 18.1233 17.2092 17.8166 17.169C17.5686 17.1366 17.9758 16.5729 18.5036 16.3199C19.297 15.9395 20.6983 15.9177 22.3538 15.9345C23.6437 15.9472 24.0148 16.026 24.5192 16.1453C25.6893 16.4218 25.6528 17.3079 25.5741 19.2197C25.5506 19.791 25.5233 20.4539 25.5233 21.2194C25.5233 21.3916 25.5182 21.5752 25.5129 21.7641C25.4856 22.7433 25.4543 23.8643 26.1127 24.2808C26.4503 24.494 27.2764 24.3128 29.3425 20.8791C30.3219 19.2518 31.0563 17.3384 31.0563 17.3384C31.0563 17.3384 31.2167 16.9972 31.466 16.8509C31.7211 16.7016 32.065 16.7476 32.065 16.7476L36.7048 16.7193C36.7048 16.7193 38.099 16.5565 38.3248 17.1723C38.5615 17.8189 37.8036 19.3285 35.9081 21.8012C34.1079 24.1495 33.2332 25.0126 33.3154 25.7771C33.3754 26.3344 33.944 26.8393 35.0334 27.829C37.3173 29.9038 37.926 30.9932 38.0707 31.2521C38.0824 31.2731 38.091 31.2886 38.0973 31.2988C39.1194 32.9576 36.9637 33.0876 36.9637 33.0876L32.8429 33.1437C32.8429 33.1437 31.9573 33.3155 30.7919 32.532C30.1825 32.1226 29.5866 31.4541 29.0189 30.8171C28.151 29.8433 27.3489 28.9433 26.6644 29.1557C25.5158 29.5124 25.5518 31.9347 25.5518 31.9347C25.5518 31.9347 25.5602 32.4521 25.2983 32.7276C25.0139 33.0277 24.4568 33.0876 24.4568 33.0876Z" fill="#44BA40"/>
</svg>
