<svg width="24" height="15" viewBox="0 0 24 15" fill="none" xmlns="http://www.w3.org/2000/svg">
<path d="M22.8472 1.49897C23.0078 0.956434 22.8472 0.557129 22.0747 0.557129H19.5182C18.8672 0.557129 18.5677 0.900011 18.4071 1.28196C18.4071 1.28196 17.105 4.4547 15.2648 6.51199C14.6701 7.10661 14.3967 7.29758 14.0712 7.29758C13.9106 7.29758 13.6632 7.10661 13.6632 6.56407V1.49897C13.6632 0.847927 13.4809 0.557129 12.9427 0.557129H8.92361C8.51562 0.557129 8.27257 0.860948 8.27257 1.14307C8.27257 1.75939 9.19271 1.90261 9.28819 3.63873V7.40609C9.28819 8.23074 9.14062 8.38265 8.8151 8.38265C7.94705 8.38265 5.83767 5.19689 4.58767 1.55105C4.33594 0.843587 4.08854 0.557129 3.43316 0.557129H0.876736C0.147569 0.557129 0 0.900011 0 1.28196C0 1.95904 0.868056 5.32275 4.0408 9.7672C6.15451 12.8011 9.13194 14.446 11.8403 14.446C13.4679 14.446 13.6675 14.0814 13.6675 13.4521C13.6675 10.5528 13.52 10.2794 14.3359 10.2794C14.7135 10.2794 15.3646 10.4703 16.8837 11.933C18.6198 13.6691 18.9062 14.446 19.8785 14.446H22.4349C23.1641 14.446 23.533 14.0814 23.3203 13.3609C22.8342 11.8462 19.5486 8.72987 19.401 8.52154C19.0234 8.03543 19.1319 7.81841 19.401 7.38439C19.4054 7.38005 22.526 2.98768 22.8472 1.49897Z" fill="black"/>
</svg>
