<svg width="48" height="46" viewBox="0 0 48 46" fill="none" xmlns="http://www.w3.org/2000/svg">
<path fill-rule="evenodd" clip-rule="evenodd" d="M24 46C37.2548 46 48 35.7026 48 23C48 10.2975 37.2548 0 24 0C10.7452 0 0 10.2975 0 23C0 35.7026 10.7452 46 24 46ZM24.1028 7.4102C15.8871 7.78722 9.40372 14.3816 9.42864 22.3088C9.43623 24.7232 10.041 27.0021 11.1079 29.0157L9.46986 36.679C9.38125 37.0935 9.76917 37.4565 10.1964 37.359L17.9877 35.5799C19.9893 36.5409 22.2377 37.096 24.6172 37.131C33.0144 37.2546 40.0163 30.8284 40.278 22.7382C40.5586 14.066 33.1323 6.99574 24.1028 7.4102ZM33.3994 30.4958C31.1177 32.6949 28.084 33.906 24.8572 33.906C22.9677 33.906 21.1588 33.4974 19.4805 32.6917L18.3954 32.1707L13.6186 33.2615L14.6241 28.5572L14.0896 27.5483C13.2183 25.9038 12.7765 24.1254 12.7765 22.2628C12.7765 19.1527 14.0331 16.2289 16.3148 14.0297C18.5761 11.8503 21.6594 10.6195 24.8574 10.6195C28.0842 10.6195 31.1178 11.8306 33.3995 14.0297C35.6812 16.2288 36.9378 19.1526 36.9379 22.2626C36.9378 25.3448 35.6608 28.3164 33.3994 30.4958ZM32.3449 25.4875L29.3564 24.6605C28.9635 24.5518 28.5404 24.6592 28.2541 24.9404L27.5233 25.658C27.2152 25.9606 26.7476 26.0578 26.3397 25.8988C24.926 25.3474 21.9521 22.799 21.1927 21.5243C20.9736 21.1566 21.0098 20.6969 21.2788 20.3614L21.9169 19.5658C22.1669 19.2541 22.2196 18.8355 22.0543 18.4752L20.797 15.7344C20.4958 15.078 19.6254 14.8869 19.0568 15.3504C18.2227 16.0303 17.2331 17.0635 17.1128 18.2081C16.9006 20.2262 17.7986 22.7701 21.1944 25.8247C25.1174 29.3536 28.259 29.8198 30.3044 29.3423C31.4646 29.0715 32.3917 27.9857 32.9769 27.0967C33.3758 26.4906 33.0608 25.6857 32.3449 25.4875Z" fill="#44BA40"/>
</svg>
