<svg width="1131" height="562" viewBox="0 0 1131 562" fill="none" xmlns="http://www.w3.org/2000/svg">
<rect width="1131" height="562" rx="30" fill="#FFDBE1"/>
<mask id="mask0_826_817" style="mask-type:alpha" maskUnits="userSpaceOnUse" x="0" y="0" width="1131" height="562">
<rect width="1131" height="562" rx="30" fill="#FFDBE1"/>
</mask>
<g mask="url(#mask0_826_817)">
<path fill-rule="evenodd" clip-rule="evenodd" d="M110.312 201.003C110.314 201.003 110.316 201.002 110.317 201V201C110.317 200.998 110.319 200.997 110.322 200.997C144.005 210.633 169.041 233.708 175.831 259.872C176.378 261.979 178.116 263.584 180.261 263.959V263.959C208.484 268.895 227.837 293.054 223.488 317.92C220.282 336.246 205.096 349.841 186.032 353.748C180.32 354.919 174.837 357.476 171.214 362.043L117.092 430.265C112.114 436.54 103.872 439.24 96.146 437.126L49.2305 424.29C49.2284 424.29 49.2262 424.291 49.2256 424.293V424.293C49.2251 424.295 49.2229 424.296 49.2207 424.296L2.30531 411.46C-5.42072 409.346 -11.1404 402.827 -12.2307 394.892L-24.0842 308.62C-24.8778 302.844 -28.2956 297.852 -32.6158 293.936C-47.036 280.868 -53.1859 261.436 -46.6155 244.03C-37.7007 220.414 -8.74398 209.472 18.0611 219.591V219.591C20.0977 220.36 22.4106 219.863 23.954 218.328C43.1179 199.265 76.4139 192.149 110.312 201.003Z" fill="#FFC100"/>
<path fill-rule="evenodd" clip-rule="evenodd" d="M195.262 301.796C195.264 301.795 195.265 301.793 195.265 301.791V301.791C195.264 301.789 195.266 301.787 195.268 301.786C229.185 293.009 262.465 300.2 281.586 319.306C283.126 320.845 285.438 321.346 287.476 320.582V320.582C314.304 310.523 343.236 321.53 352.098 345.166C358.629 362.587 352.435 382.006 337.986 395.041C333.657 398.947 330.228 403.931 329.421 409.706L317.373 495.95C316.265 503.883 310.531 510.39 302.8 512.486L255.856 525.216C255.854 525.217 255.852 525.219 255.853 525.221V525.221C255.854 525.223 255.852 525.225 255.85 525.226L208.906 537.956C201.175 540.052 192.939 537.334 187.975 531.048L134.008 462.705C130.394 458.129 124.917 455.56 119.208 454.376C100.152 450.426 84.997 436.797 81.8327 418.463C77.5393 393.588 96.9471 369.473 125.181 364.6V364.6C127.326 364.23 129.068 362.629 129.62 360.523C136.469 334.375 161.557 311.356 195.262 301.796Z" fill="#FE8A01"/>
</g>
</svg>
