<svg width="1131" height="562" viewBox="0 0 1131 562" fill="none" xmlns="http://www.w3.org/2000/svg">
<rect width="1131" height="562" fill="#FFDBE1"/>
<mask id="mask0_826_818" style="mask-type:alpha" maskUnits="userSpaceOnUse" x="0" y="0" width="1131" height="562">
<rect width="1131" height="562" fill="#FFDBE1"/>
</mask>
<g mask="url(#mask0_826_818)">
<path fill-rule="evenodd" clip-rule="evenodd" d="M162.946 97.4795C162.949 97.4803 162.952 97.4784 162.953 97.4751V97.4751C162.954 97.4718 162.958 97.4698 162.961 97.4708C215.285 112.439 254.175 148.283 264.723 188.926C265.572 192.199 268.272 194.691 271.603 195.274V195.274C315.444 202.941 345.507 240.469 338.751 279.095C333.494 309.149 307.494 331.013 275.561 335.624C269.791 336.457 264.332 339.086 260.708 343.654L168.936 459.335C163.958 465.61 155.716 468.309 147.99 466.196L68.0638 444.329C68.0605 444.328 68.0571 444.33 68.0562 444.333V444.333C68.0553 444.336 68.0519 444.338 68.0486 444.337L-11.8778 422.47C-19.6038 420.356 -25.3235 413.837 -26.4138 405.901L-46.5133 259.614C-47.307 253.838 -50.6671 248.795 -55.2097 245.14C-80.3478 224.915 -91.5963 192.861 -80.8211 164.317C-66.973 127.631 -21.9924 110.635 19.6459 126.353V126.353C22.8096 127.548 26.4024 126.777 28.7998 124.392C58.5686 94.7797 110.29 83.7261 162.946 97.4795Z" fill="#FFC100"/>
<path fill-rule="evenodd" clip-rule="evenodd" d="M294.906 254.049C294.909 254.048 294.911 254.045 294.91 254.041V254.041C294.909 254.038 294.911 254.035 294.914 254.034C347.601 240.399 399.297 251.569 428.999 281.248C431.391 283.639 434.982 284.417 438.149 283.23V283.23C479.822 267.605 524.765 284.703 538.53 321.42C549.241 349.988 537.92 382.017 512.737 402.186C508.186 405.83 504.814 410.865 504.008 416.639L483.579 562.881C482.471 570.814 476.737 577.321 469.006 579.417L389.03 601.104C389.027 601.105 389.025 601.109 389.026 601.112V601.112C389.027 601.115 389.025 601.119 389.022 601.12L309.046 622.807C301.316 624.903 293.08 622.185 288.116 615.898L196.605 500.012C192.991 495.436 187.538 492.794 181.77 491.948C149.847 487.265 123.896 465.343 118.707 435.277C112.038 396.636 142.185 359.176 186.044 351.607V351.607C189.376 351.032 192.082 348.546 192.938 345.274C203.577 304.656 242.548 268.899 294.906 254.049Z" fill="#FE8A01"/>
</g>
</svg>
