<svg width="16" height="16" viewBox="0 0 16 16" fill="none" xmlns="http://www.w3.org/2000/svg">
<rect width="16" height="16" rx="3" fill="white"/>
<path fill-rule="evenodd" clip-rule="evenodd" d="M8 3C9.56718 3.01825 10.9102 3.75596 11.4431 4.84562C11.4942 4.83754 11.546 4.83098 11.5984 4.826C12.8192 4.70995 13.891 5.4959 13.9923 6.58148C14.0785 7.50552 13.4338 8.3488 12.4871 8.65088L10.647 12.9997H8L5.35295 13L3.51293 8.65122C2.56624 8.34915 1.9215 7.50587 2.00772 6.58183C2.109 5.49625 3.18078 4.7103 4.4016 4.82635C4.45397 4.83133 4.50578 4.83789 4.55695 4.84597C5.08981 3.75631 6.43282 3.01825 8 3Z" fill="#FE8A01"/>
</svg>
