<svg width="51" height="42" viewBox="0 0 51 42" fill="none" xmlns="http://www.w3.org/2000/svg">
<path fill-rule="evenodd" clip-rule="evenodd" d="M25.2 0.00143612L25.2 0C31.7822 0.0759227 37.4228 3.1448 39.6608 7.67779C39.8757 7.64418 40.0933 7.61689 40.3133 7.59618C45.4407 7.1134 49.9422 10.383 50.3676 14.899C50.7297 18.743 48.0218 22.251 44.0457 23.5076L36.3176 41.5986H25.2L25.2 41.6H14.0824L6.35432 23.5091C2.3782 22.2525 -0.32969 18.7444 0.0324117 14.9004C0.457813 10.3844 4.95927 7.11484 10.0867 7.59761C10.3067 7.61833 10.5243 7.64561 10.7392 7.67922C12.9772 3.14623 18.6178 0.0773588 25.2 0.00143612Z" fill="#FFC100"/>
</svg>
